<svg xmlns="http://www.w3.org/2000/svg" viewBox="0 0 128 123"><g fill="#d4d4d4" stroke-width="0"><path d="M22 62v41h85V21H22zm66.7-23.4c5.5 4 6.3 7.2 6.3 25.4 0 18.5-.8 21.1-7.2 25-2.9 1.8-5.1 2-19.8 2-18.2 0-21.4-.8-25.4-6.3-1.9-2.6-2.1-4.2-2.1-21.2s.2-18.6 2.1-21.2c4.2-5.7 7.1-6.4 26.1-6.1 15.5.3 17.4.5 20 2.4"/><path d="M59.3 64c0 4.1.2 5.8.4 3.7.2-2 .2-5.4 0-7.5-.2-2-.4-.3-.4 3.8m3 0c0 4.1.2 5.8.4 3.7.2-2 .2-5.4 0-7.5-.2-2-.4-.3-.4 3.8m4.6-5.3c-1.3 1.6-1.2 1.7.4.4.9-.7 1.7-1.5 1.7-1.7 0-.8-.8-.3-2.1 1.3"/></g><path fill="#aaa" d="M75.1 58.6c0 1.1.3 1.4.6.6.3-.7.2-1.6-.1-1.9-.3-.4-.6.2-.5 1.3"/><path fill="#558080" d="M59.8 56.7c.6.2 1.8.2 2.5 0 .6-.3.1-.5-1.3-.5s-1.9.2-1.2.5m11 0c.6.2 1.8.2 2.5 0 .6-.3.1-.5-1.3-.5s-1.9.2-1.2.5m-11 15c.6.2 1.8.2 2.5 0 .6-.3.1-.5-1.3-.5s-1.9.2-1.2.5"/><path fill="#555580" d="M61.3 36.7c3.7.2 9.6.2 13 0s.4-.3-6.8-.3c-7.1 0-9.9.1-6.2.3m-16.9 4.5-1.9 2.3 2.3-1.9c2.1-1.8 2.7-2.6 1.9-2.6-.2 0-1.2 1-2.3 2.2m45.1-.2c1 1.1 2 2 2.3 2s-.3-.9-1.3-2-2-2-2.3-2 .3.9 1.3 2M40.4 63.5c0 7.1.1 9.9.3 6.2s.2-9.6 0-13-.3-.4-.3 6.8M94.3 57c0 3.6.2 5 .4 3.2.2-1.7.2-4.7 0-6.5-.2-1.7-.4-.3-.4 3.3m-36 7c0 4.1.2 5.8.4 3.7.2-2 .2-5.4 0-7.5-.2-2-.4-.3-.4 3.8m5 0c0 4.1.2 5.8.4 3.7.2-2 .2-5.4 0-7.5-.2-2-.4-.3-.4 3.8m1.8 4.6c0 1.1.3 1.4.6.6.3-.7.2-1.6-.1-1.9-.3-.4-.6.2-.5 1.3M44.5 86c1 1.1 2 2 2.3 2s-.3-.9-1.3-2-2-2-2.3-2 .3.9 1.3 2m13.3 4.7c1.7.2 4.7.2 6.5 0 1.7-.2.3-.4-3.3-.4s-5 .2-3.2.4"/><path fill="#aaaad4" d="M43.9 40.7c-1.3 1.6-1.2 1.7.4.4.9-.7 1.7-1.5 1.7-1.7 0-.8-.8-.3-2.1 1.3M89 39.4c0 .2.8 1 1.8 1.7 1.5 1.3 1.6 1.2.3-.4S89 38.6 89 39.4m-46 46c0 .2.8 1 1.8 1.7 1.5 1.3 1.6 1.2.3-.4S43 84.6 43 85.4"/><path fill="#005" d="M76.1 58.6c0 1.1.3 1.4.6.6.3-.7.2-1.6-.1-1.9-.3-.4-.6.2-.5 1.3m-4.5 2.6c.3.5 1 .6 1.5.3 1.3-.9 1.1-1.2-.6-1.2-.8 0-1.2.4-.9.9"/><path d="M49.1 38.8c-6.9 3.5-7.6 5.4-7.9 23.5-.2 14 0 16.7 1.5 19.6 3.1 5.9 6.3 7.6 15.9 8l8.4.3v-8.6c0-4.8-.5-9.4-1.2-10.5-1.5-2.5-.4-5.2 1.9-4.5 1.3.5 1.1.2-.4-1-5.1-3.8-1.7-9.9 5.1-9.4 3.3.2 4.1.7 4.1 2.3 0 1.5-.6 2-2.4 1.9-2.2-.1-2.3 0-.6 1.3 1.3.9 5 1.3 11.3 1.3h9.4l-.3-8.4c-.4-9.6-2.1-12.9-8-15.8-2.8-1.5-6.1-1.8-18.4-1.8s-15.6.3-18.4 1.8M64 64v8h-6V56h6z"/><path fill="#aad4d4" d="m89.9 86.7-2.4 2.8 2.8-2.4c2.5-2.3 3.2-3.1 2.4-3.1-.2 0-1.4 1.2-2.8 2.7"/><path fill="#055" d="M80.3 63.7c2.6.2 6.8.2 9.5 0 2.6-.2.4-.3-4.8-.3s-7.4.1-4.7.3m-14.6 7.4c.7.8 1.4 5.5 1.6 10.5l.3 8.9.2-9.1c.2-7.7-.1-9.4-1.5-10.5-1.6-1.2-1.7-1.2-.6.2"/><path fill="#fff" d="M60 64c0 4 .4 7 1 7s1-3 1-7-.4-7-1-7-1 3-1 7m8.2-5.8c-2.1 2.1-1.4 5.8 1.3 6.8 3.3 1.3 3.3 4-.1 4-1.4 0-2.3.4-1.9 1 1.8 2.9 9.2-1.1 7.9-4.3-.4-1-1.7-2.3-3-2.8-3.3-1.2-3.1-3.9.2-3.9 1.4 0 2.3-.4 1.9-1-.9-1.4-4.8-1.3-6.3.2"/><path fill="#5aa" d="M80.8 90.7c.7.3 1.6.2 1.9-.1.4-.3-.2-.6-1.3-.5-1.1 0-1.4.3-.6.6"/><path fill="#0aa" d="M77 66.4c0 3.3-2.5 5.6-6.1 5.6H68v18.1l8.4-.3c4.6-.1 8.2-.6 8-.9-.5-.9 2.5-2.1 3.6-1.4.9.5 3.4-2.2 3.6-3.9.3-3.3.5-3.7 1.2-3.2.5.3.9-3.3 1.1-8l.2-8.4h-8.6c-8.3 0-8.5 0-8.5 2.4m14 18c0 .2-.8 1-1.7 1.7-1.6 1.3-1.7 1.2-.4-.4s2.1-2.1 2.1-1.3"/><path fill="#55d4aa" d="M94.3 70.5c0 3.8.2 5.3.4 3.2.2-2 .2-5.2 0-7-.2-1.7-.4-.1-.4 3.8M70.8 90.7c1.7.2 4.7.2 6.5 0 1.7-.2.3-.4-3.3-.4s-5 .2-3.2.4"/><path fill="#55d4d4" d="M68.8 71.7c.6.2 1.8.2 2.5 0 .6-.3.1-.5-1.3-.5s-1.9.2-1.2.5"/><path fill="#00aa80" d="M91.2 82.5c-.6 1.4-2.6 3.4-4.4 4.5s-2.8 2-2.2 2c2.6 0 9.5-7.3 8.1-8.6-.2-.2-.9.7-1.5 2.1m-10.4 7.2c.7.3 1.6.2 1.9-.1.4-.3-.2-.6-1.3-.5-1.1 0-1.4.3-.6.6"/></svg>